<svg data-v-f8a4d820="" xmlns="http://www.w3.org/2000/svg" width="81" height="18" fill="none"><g clip-path="url(#a)"><path fill="#000" d="M7.542.705c.475.01.854-.217.915-.22.02-.002.073-.016.136-.033H7.117c.125.126.196.248.425.253M6.818.26q-.336.084-.664.193h.963A.8.8 0 0 0 6.818.26M8.961.368c-.07 0-.242.05-.368.084h3.171A8.8 8.8 0 0 0 9.967.058c-.227.15-.439.29-.535.318-.217.062-.365-.008-.47-.008M7.9 3.798c.093-.013.276-.138.433-.236H7.285c.158.082.383.218.42.231.046.018.129.015.196.005M5.253 3.602c.081-.006.221-.006.25 0 .027.005.28.244.407.296.09.036.14.031.21-.004.077-.038.23-.207.391-.332H4.363c.132.098.274.176.427.18.425.014.383-.135.463-.141M12.901 2.243c-.275.01-.499.655-.968.672s-.502-.18-.845-.119c-.342.062-.994.538-1.113.546-.119.007-.36-.037-.465-.03-.104.007-.316.124-.424.128s-.391.005-.533.017a.7.7 0 0 0-.22.105l7.764-.004a9 9 0 0 0-1.401-1.473c-.485.185-1.035.396-1.14.4-.179.004-.38-.252-.655-.243zM3.732 3.17c-.301.006-.547-.052-.726.088-.061.049-.198.17-.361.307h1.718c-.234-.17-.439-.4-.632-.396zM7.175 3.511c-.128-.046-.21-.053-.453-.042a.4.4 0 0 0-.211.095h.774a1 1 0 0 0-.11-.052M2.645 3.565H1.82a9 9 0 0 0-.377.54c.08.036.17.065.29.06.184-.007.598-.336.912-.6M5.146 7.25c-.081 0-.13.1-.244.182h.525c-.11-.095-.203-.182-.281-.182M8.291 7.43h-1.16c.194.089.376.185.493.189.208.005.522-.16.667-.19M6.62 7.282c-.135.004-.27.071-.393.149h.905c-.174-.08-.357-.155-.513-.15M.372 8.296c.2-.021.44-.243.573-.259.134-.015.29.006.469 0 .095-.003.396-.313.752-.603H.138q-.071.41-.106.83c.11.022.227.043.34.032M4.903 7.431h-.776c.107.06.225.1.37.099.218-.003.334-.047.406-.099M6.227 7.431H5.43c.14.12.284.255.371.252.093-.003.248-.139.427-.252M3.126 6.939c-.298.004-.65.242-.96.495h1.96c-.308-.171-.525-.503-1-.495"></path><path fill="#000" d="M16.38 5.195c-.108.045-.253.034-.428.034s-.611.151-.708.161-.301.172-.454.243c-.152.072-.368-.087-.547-.016s-.613.43-.778.464c-.166.033-.386-.118-.665-.12s-1.03.533-1.279.573c-.25.04-.442-.074-.655-.044s-1.024.76-1.117.768c-.094.008-.238-.071-.402-.058s-.898.22-1.024.224q-.016.002-.033.006l9.491-.006a9 9 0 0 0-.822-2.48c-.104.035-.209.064-.252.08-.082.029-.22.126-.328.172zM6.172 10.66h-.734c.102.063.216.128.34.137.13.009.24-.061.394-.138M5.159 10.528c-.071 0-.171.064-.293.131h.572c-.105-.066-.2-.13-.28-.13M3.561 10.348c-.224-.042-.44-.107-.783.05-.123.057-.3.156-.488.261h1.703c-.162-.126-.294-.286-.432-.312"></path><path fill="#000" d="M4.866 10.66h-.873a.66.66 0 0 0 .352.155c.192.016.372-.073.521-.156M16.896 8.478c-.513.209-1.282.315-1.62.442-.378.142-.784.111-1.015.172s-.77.696-.964.704c-.194.01-.597-.327-.81-.301-.212.026-.474.462-.683.5-.21.04-.456-.134-.818-.097s-.99.605-1.18.62c-.19.013-.079-.061-.463-.047-.385.014-.953.097-1.12.113-.168.017-.242.065-.511.075s-.351-.214-.926-.172c-.28.02-.467.099-.614.172h11.595a9.1 9.1 0 0 0 .104-2.616c-.24.15-.413.307-.549.371-.164.08-.25-.007-.425.064M.992 11.048c.164-.01.217.078.447.037.149-.027.515-.237.85-.425H.153q.054.296.126.585a.6.6 0 0 0 .19-.025c.14-.047.358-.162.522-.172M15.504 12.249c-.268.09-.559.566-.699.674-.14.107-.23.06-.553.088-.325.028-.626.64-.965.738-.34.098-.393-.413-.74-.386-.346.029-.475.43-.743.532s-.112-.118-.771-.073c-.533.037-.868.629-1.137.854l6.019-.001a9 9 0 0 0 1.628-3.087c-.23.216-.516.473-.815.541-.377.086-.956.028-1.224.12M4.77 14.678h-.646c.095.095.187.164.271.17.147.007.258-.08.374-.17M9.896 14.676h-.619c.155.044.27.086.41.086a.36.36 0 0 0 .21-.086M3.508 14.034c-.196-.012-1.135.368-1.291.468-.05.03-.124.096-.21.172l.004.004h2.114c-.234-.236-.478-.636-.617-.644M6.24 14.678h-.702c.093.089.182.175.31.174.151-.002.258-.092.393-.174M8.238 14.677H7.26c.184.067.354.141.491.168.177.036.305-.077.487-.168M5.16 14.49c-.16.008-.278.1-.391.188h.768c-.101-.097-.208-.196-.377-.188"></path><path fill="#000" d="M6.641 14.55a.8.8 0 0 0-.4.127h1.02c-.198-.072-.411-.136-.62-.127M8.65 14.57a.9.9 0 0 0-.412.107h1.04a2 2 0 0 0-.628-.107M8.285 17.792H7.6c.09.046.17.087.345.087.119 0 .226-.04.339-.088M7.416 17.717c-.217-.059-.384-.052-.69-.042a1 1 0 0 0-.1.014q.207.056.417.102H7.6a1 1 0 0 0-.183-.074z"></path><path fill="#000" d="M8.791 17.654c-.204.006-.36.077-.507.138h1.189c-.22-.06-.466-.144-.682-.138M9.872 17.847a.3.3 0 0 0 .12-.056h-.52c.15.04.29.071.399.056M11.962 17.246c-.335.014-.568-.396-.94-.345-.322.045-.745.693-1.03.89h.887a8.9 8.9 0 0 0 2.28-.84.7.7 0 0 0-.315-.054c-.427.007-.55.335-.883.349"></path><path fill="#0D0D0E" d="M24.685 14.032q-1.815 0-2.85-1.226-1.035-1.238-1.034-3.58 0-1.172.265-2.064.264-.893.769-1.505a3.2 3.2 0 0 1 1.22-.918 4 4 0 0 1 1.63-.32q1.206 0 2.014.533.822.532 1.286 1.571l-1.26.693a2.24 2.24 0 0 0-.742-1.052q-.49-.4-1.299-.4-1.073 0-1.683.733-.61.732-.61 2.023v1.411q0 1.292.61 2.024t1.683.732q.836 0 1.352-.426.53-.44.782-1.118l1.206.732q-.464 1.012-1.299 1.584t-2.042.573zM33.27 6.95h1.445v6.921H33.27zM36.822 13.872V6.95h1.445v1.145h.066a3.4 3.4 0 0 1 .252-.506q.159-.24.37-.413.225-.186.518-.28.304-.106.703-.106.702 0 1.246.346.543.345.795 1.065h.04q.185-.585.716-.999.53-.413 1.365-.413 1.034 0 1.604.706.57.692.57 1.983v4.393h-1.445v-4.22q0-.8-.304-1.198-.305-.413-.968-.413-.28 0-.53.08a1.3 1.3 0 0 0-.452.213 1.1 1.1 0 0 0-.424.892v4.646h-1.444V9.65q0-1.612-1.26-1.612-.264 0-.53.08a1.3 1.3 0 0 0-.45.213 1.1 1.1 0 0 0-.319.372 1.1 1.1 0 0 0-.12.52v4.646h-1.444zM53.606 13.872q-.57 0-.875-.32a1.5 1.5 0 0 1-.37-.838h-.066q-.2.652-.73.986-.53.332-1.286.332-1.074 0-1.656-.559-.57-.559-.57-1.504 0-1.038.742-1.558.756-.52 2.2-.52h1.247v-.585q0-.639-.345-.986-.344-.345-1.073-.345-.61 0-.995.266a2.4 2.4 0 0 0-.649.68l-.861-.786q.344-.585.968-.96.622-.385 1.63-.385 1.338 0 2.055.625.716.625.716 1.798v3.475h.729v1.184h-.811m-2.916-.945q.676 0 1.113-.293.438-.306.438-.812v-.999h-1.22q-1.497 0-1.498.932v.24q0 .465.305.705.318.226.861.227M29.55 13.872V4.021h1.445v9.851zM33.123 4.8c0-.46.37-.833.829-.833a.83.83 0 0 1 .829.833.83.83 0 0 1-.83.832.83.83 0 0 1-.828-.832M57.754 13.918q-.758.001-1.144-.394-.387-.394-.386-1.116V8.16h-1.077V6.97h.585q.36 0 .499-.16.14-.16.14-.52V5.074h1.304V6.97h1.45v1.19h-1.45v4.569h1.343v1.19h-1.264zM63.355 14.078q-.745 0-1.33-.253a2.75 2.75 0 0 1-.998-.729 3.3 3.3 0 0 1-.632-1.149 4.9 4.9 0 0 1-.22-1.503q0-.828.22-1.503t.632-1.15q.411-.473.998-.728a3.3 3.3 0 0 1 1.33-.253c.497 0 .95.089 1.337.267q.58.267.965.741.386.475.578 1.103.193.627.193 1.35v.547h-4.75v.226q0 .797.473 1.308.472.51 1.35.51.639 0 1.078-.278.438-.279.744-.757l.852.844q-.387.644-1.117 1.026-.732.381-1.703.381m0-6.132q-.372 0-.685.133a1.5 1.5 0 0 0-.532.374q-.22.24-.339.575t-.12.735v.093h3.22v-.133q0-.801-.412-1.29-.413-.486-1.13-.487zM67.679 13.918V12.69h1.264V5.822h-1.264v-1.23h4.044v1.23h-1.277v6.867h1.277v1.23zM79.114 16.23h-1.317q-.784 0-1.15-.4-.367-.402-.367-1.083v-.708a3.7 3.7 0 0 1-1.41-.455 3.4 3.4 0 0 1-1.064-.962 4.5 4.5 0 0 1-.679-1.45 7 7 0 0 1-.24-1.917q0-1.175.287-2.078.285-.9.811-1.51.526-.607 1.265-.922a4.2 4.2 0 0 1 1.642-.314q.905 0 1.643.314.739.315 1.264.922.525.609.812 1.51.286.903.286 2.078 0 2.085-.864 3.294-.865 1.21-2.342 1.463v.962h1.423zm-2.222-3.5q.532 0 .979-.188.445-.188.758-.542.312-.355.485-.864t.173-1.151V8.512q0-.643-.173-1.151a2.5 2.5 0 0 0-.486-.864 2.06 2.06 0 0 0-.757-.542 2.5 2.5 0 0 0-.979-.187c-.354 0-.691.062-.984.187a2.1 2.1 0 0 0-.752.542q-.312.356-.486.864a3.6 3.6 0 0 0-.172 1.15v1.474q0 .642.172 1.151.172.51.486.864.313.354.752.542.439.187.984.187"></path></g><defs><clipPath id="a"><path fill="#fff" d="M0 0h80.897v18H0z"></path></clipPath></defs></svg>
